<?xml version="1.0" encoding="utf-8"?>
<!-- Generator: Adobe Illustrator 25.4.1, SVG Export Plug-In . SVG Version: 6.00 Build 0)  -->
<svg version="1.1"
	 id="Ebene_1" xmlns:cc="http://creativecommons.org/ns#" xmlns:dc="http://purl.org/dc/elements/1.1/" xmlns:inkscape="http://www.inkscape.org/namespaces/inkscape" xmlns:rdf="http://www.w3.org/1999/02/22-rdf-syntax-ns#" xmlns:sodipodi="http://sodipodi.sourceforge.net/DTD/sodipodi-0.dtd" xmlns:svg="http://www.w3.org/2000/svg"
	 xmlns="http://www.w3.org/2000/svg" xmlns:xlink="http://www.w3.org/1999/xlink" x="0px" y="0px" viewBox="0 0 518 290"
	 style="enable-background:new 0 0 518 290;" xml:space="preserve">
<style type="text/css">
	.st0{fill:none;stroke:#29D000;stroke-width:2;stroke-miterlimit:10;stroke-dasharray:4,4;}
	.st1{fill:none;stroke:#035D00;stroke-width:5;stroke-miterlimit:10;}
	.st2{fill:none;stroke:#000000;stroke-width:5;stroke-miterlimit:10;}
	.st3{fill:#FFCD2E;}
	.st4{font-family:'ArialMT';}
	.st5{font-size:18px;}
	.st6{fill:#B25F1E;}
	.st7{fill:#FFFFFF;}
	.st8{font-family:'Calibri';}
	.st9{font-size:15px;}
	.st10{fill:none;stroke:#FFCD2E;stroke-width:3;stroke-miterlimit:10;stroke-dasharray:11.9177,11.9177;}
	.st11{opacity:0.8;}
	.st12{fill:#FF3717;}
	.st13{opacity:0.8;fill-rule:evenodd;clip-rule:evenodd;enable-background:new    ;}
	.st14{fill:#B8860B;}
	.st15{fill:#035D00;}
	.st16{fill:none;}
	.st17{font-size:12px;}
	.st18{font-size:13px;}
</style>
<sodipodi:namedview  bordercolor="#666666" borderopacity="1" gridtolerance="10" guidetolerance="10" id="namedview98" inkscape:current-layer="g68" inkscape:cx="259" inkscape:cy="83.63771" inkscape:pageopacity="0" inkscape:pageshadow="2" inkscape:window-height="1017" inkscape:window-maximized="1" inkscape:window-width="1920" inkscape:window-x="1912" inkscape:window-y="-8" inkscape:zoom="1.9555985" objecttolerance="10" pagecolor="#ffffff" showgrid="false">
	</sodipodi:namedview>
<line id="line6" class="st0" x1="289.6" y1="20.9" x2="289.6" y2="62.7"/>
<line id="line4" class="st0" x1="198" y1="20.9" x2="198" y2="61.3"/>
<line id="line70" class="st0" x1="290.5" y1="170.6" x2="290.5" y2="207.6"/>
<path id="path9" class="st1" d="M184.7,166.3h-103V99.9c0-20.6,16.7-37.3,37.3-37.3h195.6"/>
<path id="path11" class="st2" d="M349,62.6h93.1v48.7c0,30.4-24.6,55-55,55H209.3"/>
<g id="g15">
	<circle id="circle82" class="st3" cx="377" cy="62" r="9.6"/>
	<text id="text108" transform="matrix(1 0 0 1 372.2484 69.0203)" class="st4 st5">2</text>
</g>
<polyline id="polyline17" class="st2" points="360.8,44.3 459.5,44.1 459.5,83.3 "/>
<polyline id="polyline19" class="st2" points="377.9,24.8 476.6,24.6 476.6,78.2 "/>
<polyline id="polyline21" class="st1" points="147.6,199 57.3,200.1 57.1,155.2 "/>
<polyline id="polyline23" class="st1" points="140,218.2 44.1,218.3 44.2,158.9 "/>
<polyline id="polyline25" class="st1" points="168.7,182.4 70.4,183.4 70.1,144.2 "/>
<g id="g29">
	<circle id="circle80" class="st3" cx="154" cy="164.8" r="9.6"/>
	<text id="text102" transform="matrix(1 0 0 1 149.2999 171.1115)" class="st4 st5">1</text>
</g>
<g id="g33">
	<circle id="circle88" class="st3" cx="116.4" cy="181.6" r="9.6"/>
	<text id="text114" transform="matrix(1 0 0 1 111.6765 188.1781)" class="st4 st5">3</text>
</g>
<g id="g37">
	<circle id="circle90" class="st3" cx="87.4" cy="198.7" r="9.6"/>
	<text id="text104" transform="matrix(1 0 0 1 82.5654 205.017)" class="st4 st5">5</text>
</g>
<circle id="circle92" class="st3" cx="62.5" cy="217.3" r="9.6"/>
<text id="text106" transform="matrix(1 0 0 1 58.1343 223.58)" class="st4 st5">7</text>
<g id="g43">
	<circle id="circle86" class="st3" cx="443.8" cy="24" r="9.6"/>
	<text id="text112" transform="matrix(1 0 0 1 438.275 30.8905)" class="st4 st5">6</text>
</g>
<g id="g47">
	<circle id="circle84" class="st3" cx="410.5" cy="44.2" r="9.6"/>
	<text id="text110" transform="matrix(1 0 0 1 405.3512 50.6074)" class="st4 st5">4</text>
</g>
<circle id="circle49" class="st6" cx="466.5" cy="117.9" r="45.2"/>
<text id="text56" transform="matrix(1 0 0 1 436.1249 123.1237)" class="st7 st8 st9">Al-Marwa</text>
<line id="line52" class="st10" x1="119.5" y1="139" x2="405.6" y2="139"/>
<line id="line54" class="st10" x1="119.5" y1="89.5" x2="405.6" y2="89.5"/>
<g id="g140" class="st11">
	<polygon id="polygon134" class="st12" points="101.6,44.6 111.4,45 107.2,34.9 	"/>
	<polygon id="polygon136" class="st12" points="102.5,23.1 112.4,23.3 108.1,13.2 	"/>
	<polygon id="polygon138" class="st12" points="102.1,33.8 112,34.1 107.8,24.1 	"/>
</g>
<path id="XMLID_2541_" class="st13" d="M142.1,17l18.1-5.6v3.2l-18.1,5.6V17z M123.5,10.6l18.2,5.6l18.1-5.6L141.6,5L123.5,10.6z
	 M127,10.6l14.6,4.5l14.6-4.5l-14.6-4.5L127,10.6z M129.3,10.6l12.3,3.8l12.3-3.8l-12.3-3.8L129.3,10.6z M141.1,17l-18.2-5.6v3.2
	l18.2,5.6V17z M122.9,16v0.9l3.5,1.1v1.4l-3.5-1.1v19.2c5.4,2.1,12.6,4.4,18.1,6.6c0.7,0.1-0.7,0,0,0V23.9l-3.6-1.1v-1.4l3.6,1.1
	v-0.9L122.9,16z M136.2,21l-3.6-1.1v1.4l3.5,1.1V21H136.2z M131.3,19.5l-3.5-1.1v1.4l3.5,1.1V19.5z M160.3,16v0.9l-3.5,1.1v1.4
	l3.5-1.1v18.4c-5.9,3-11.3,5.2-18.1,7.4V23.9l3.6-1.1v-1.4l-3.6,1.1v-0.9L160.3,16z M147.1,21l3.5-1.1v1.4l-3.5,1.1V21z M151.9,19.5
	l3.5-1.1v1.4l-3.5,1.1V19.5z"/>
<line id="line72" class="st0" x1="199.3" y1="171.6" x2="199.3" y2="205.7"/>
<g id="g100">
	<polygon id="polygon94" class="st12" points="231.3,244.9 240.8,247.1 238.6,236.4 	"/>
	<polygon id="polygon96" class="st12" points="236.2,223.9 245.8,226 243.5,215.3 	"/>
	<polygon id="polygon98" class="st12" points="233.8,234.4 243.3,236.6 241.1,225.9 	"/>
</g>
<circle id="circle71" class="st14" cx="51.8" cy="117.9" r="45.2"/>
<g id="g60">
	<text id="text58" transform="matrix(1 0 0 1 24.1902 124.1238)" class="st7 st8 st9">As-Safa</text>
</g>
<polygon id="polygon40" points="379.3,30.8 379.2,17.9 366.2,23.9 "/>
<polygon id="polygon42" points="362.6,50.8 362.5,37.9 349.5,43.9 "/>
<polygon id="polygon77" points="349.1,68.4 336,61.5 349,55.5 349,62.6 "/>
<polygon id="polygon46" class="st15" points="138.6,211.7 138.2,224.6 151.4,219 "/>
<polygon id="polygon48" class="st15" points="146,192.4 145.7,205.3 158.9,199.7 "/>
<polygon id="polygon50" class="st15" points="167.3,176.1 166.9,188.9 180.1,183.3 "/>
<polygon id="polygon52" class="st15" points="182,158.9 181.6,171.8 194.8,166.2 "/>
<rect x="204.9" y="16.2" class="st16" width="81.3" height="43.4"/>
<rect x="205.2" y="171.6" class="st16" width="81.3" height="43.4"/>
<rect x="87.9" y="251.4" class="st16" width="349.2" height="34.4"/>
<rect x="210.8" y="25.2" class="st16" width="67.6" height="28.8"/>
<text transform="matrix(1 0 0 1 211.3155 33.336)"><tspan x="0" y="0" class="st8 st17">Green lighted </tspan><tspan x="22.4" y="14.4" class="st8 st17">area</tspan></text>
<rect x="211.5" y="177.1" class="st16" width="67.6" height="33"/>
<text transform="matrix(1 0 0 1 212.0655 185.1898)"><tspan x="0" y="0" class="st8 st17">Green lighted </tspan><tspan x="22.4" y="14.4" class="st8 st17">area</tspan></text>
<rect x="112.4" y="255" class="st16" width="314.4" height="30.8"/>
<text transform="matrix(1 0 0 1 116.9297 263.7726)"><tspan x="0" y="0" class="st8 st18">Rushing quickly between the two green marks is a sunnah </tspan><tspan x="88.5" y="15.6" class="st8 st18">that applies only to men</tspan></text>
</svg>
